<svg xmlns="http://www.w3.org/2000/svg" fill="none" viewBox="-0.5 -0.5 24 24" id="Css-3--Streamline-Svg-Logos.svg" height="24" width="24"><desc>Css 3 Streamline Icon: https://streamlinehq.com</desc><path fill="#264DE4" d="M11.490225 22.760392708333335 4.974420833333333 20.9515625l-1.4520427083333334 -16.286132291666668h15.955219791666666l-1.4535520833333335 16.283592708333334 -6.533820833333333 1.811369791666667Z" stroke-width="1"></path><path fill="#2965F1" d="m16.779745833333333 19.912130208333334 1.2421677083333336 -13.915071875H11.500119791666668V21.375864583333335l5.279626041666667 -1.463734375Z" stroke-width="1"></path><path fill="#EBEBEB" d="m6.851053125000001 12.037361458333333 0.17901666666666666 1.99740625h4.469858333333334v-1.99740625h-4.648875Z" stroke-width="1"></path><path fill="#EBEBEB" d="m6.491438541666667 7.994584375 0.18158020833333335 1.9974302083333333h4.827029166666667v-1.9974302083333333H6.491438541666667Z" stroke-width="1"></path><path fill="#EBEBEB" d="m11.500023958333335 17.224891666666668 -0.008744791666666666 0.0023239583333333337 -2.2245552083333333 -0.600659375 -0.14221666666666669 -1.5930614583333333h-2.005096875l0.2798333333333333 3.136265625 4.091580208333333 1.135840625 0.0092 -0.0025635416666666667v-2.078145833333333Z" stroke-width="1"></path><path fill="#000" d="M7.277463541666667 0.23958333333333334h2.419216666666667v1.0116789583333334h-1.4075520833333335v1.0116765625h1.4075520833333335V3.274625H7.277463541666667V0.23958333333333334Z" stroke-width="1"></path><path fill="#000" d="M10.180542708333334 0.23958333333333334h2.419216666666667v0.87972125h-1.4075520833333335v0.1759428125h1.4075520833333335v2.0233651041666665H10.180542708333334V2.3948965625h1.4075520833333335v-0.1759428125h-1.4075520833333335V0.23958333333333334Z" stroke-width="1"></path><path fill="#000" d="M13.083621875 0.23958333333333334h2.419216666666667v0.87972125h-1.4075520833333335v0.1759428125h1.4075520833333335v2.0233651041666665H13.083621875V2.3948965625h1.4075520833333335v-0.1759428125h-1.4075520833333335V0.23958333333333334Z" stroke-width="1"></path><path fill="#fff" d="m16.13608125 12.037409375 0.36059687500000004 -4.042825000000001H11.493100000000002v1.9974302083333333H14.307677083333335l-0.18174791666666668 2.045394791666667H11.493100000000002v1.99740625h2.4596104166666666l-0.2318447916666667 2.59051875 -2.2277656250000004 0.6012822916666667v2.0780739583333334l4.094838541666666 -1.1348822916666668 0.030043750000000004 -0.337453125 0.46936770833333336 -5.258566666666667 0.048731250000000004 -0.5363791666666666Z" stroke-width="1"></path></svg>