<svg xmlns="http://www.w3.org/2000/svg" fill="none" viewBox="-0.5 -0.5 24 24" id="Html-5--Streamline-Svg-Logos.svg" height="24" width="24"><desc>Html 5 Streamline Icon: https://streamlinehq.com</desc><path fill="#E44D26" d="m19.477597916666667 4.665454166666667 -1.4535520833333335 16.28356875L11.490225 22.760416666666668l-6.515804166666667 -1.8088541666666667 -1.4520427083333334 -16.286108333333335h15.955219791666666Z" stroke-width="1"></path><path fill="#F16529" d="m11.499760416666668 21.375864583333335 5.27965 -1.4637104166666668 1.2421677083333336 -13.915071875H11.499760416666668V21.375864583333335Z" stroke-width="1"></path><path fill="#EBEBEB" d="M8.674378125 9.991966666666666h2.825669791666667v-1.9974302083333333H6.491438541666667l0.04782083333333333 0.5358760416666667 0.4909302083333334 5.504355208333333h4.469858333333334v-1.99740625H8.856916666666669l-0.1825385416666667 -2.045394791666667Z" stroke-width="1"></path><path fill="#EBEBEB" d="M9.124291666666668 15.03351875h-2.0051208333333332l0.2798572916666667 3.136241666666667 4.091580208333333 1.1358645833333334 0.009176041666666667 -0.0025635416666666667v-2.0781697916666664l-0.008744791666666666 0.0023479166666666666 -2.2245552083333333 -0.6006833333333333 -0.14219270833333333 -1.5930375Z" stroke-width="1"></path><path fill="#000" d="M5.0069083333333335 0.23958333333333334h1.0150666666666666v1.0028814583333334h0.9285531250000001V0.23958333333333334h1.0151145833333335v3.0369583333333336h-1.0150666666666666V2.2595966666666665h-0.9285531250000001V3.2765416666666667h-1.0150666666666666L5.0069083333333335 0.23958333333333334Z" stroke-width="1"></path><path fill="#000" d="M9.300553125 1.2466862500000002h-0.8936218750000001V0.23958333333333334h2.802789583333334v1.0071029166666667h-0.8940052083333334V3.2765416666666667h-1.0151145833333335l-0.00004791666666666667 -2.029855416666667Z" stroke-width="1"></path><path fill="#000" d="M11.654411458333334 0.23958333333333334h1.05843125l0.6510916666666667 1.067099375L14.014355208333335 0.23958333333333334h1.0588385416666668v3.0369583333333336h-1.0108979166666667V1.7712635416666667l-0.6983614583333333 1.0798020833333333h-0.017465625000000002l-0.698840625 -1.0798020833333333v1.505278125h-0.9932166666666667V0.23958333333333334Z" stroke-width="1"></path><path fill="#000" d="M15.578522916666666 0.23958333333333334h1.015378125v2.0331209375h1.4274854166666666V3.2765416666666667H15.578522916666666V0.23958333333333334Z" stroke-width="1"></path><path fill="#fff" d="M11.493219791666666 14.034791666666667h2.4596104166666666l-0.2318447916666667 2.590494791666667 -2.2277656250000004 0.6013062499999999v2.0780739583333334l4.094838541666666 -1.1348822916666668 0.030043750000000004 -0.33747708333333337 0.46936770833333336 -5.258566666666667 0.048731250000000004 -0.5363552083333334H11.493219791666666v1.99740625Z" stroke-width="1"></path><path fill="#fff" d="M11.493219791666666 9.987103124999999v0.004863541666666666h4.824729166666668l0.04008229166666667 -0.4489552083333333 0.09099375000000001 -1.0125989583333332 0.047772916666666665 -0.5358760416666667H11.493219791666666v1.9925666666666668Z" stroke-width="1"></path></svg>