<svg xmlns="http://www.w3.org/2000/svg" fill="none" viewBox="-0.5 -0.5 24 24" id="Javascript--Streamline-Svg-Logos.svg" height="24" width="24"><desc>Javascript Streamline Icon: https://streamlinehq.com</desc><path fill="#F7DF1E" d="M0.23958333333333334 0.23958333333333334h22.520833333333336v22.520833333333336H0.23958333333333334V0.23958333333333334Z" stroke-width="1"></path><path fill="#000" d="m6.161244791666667 19.059620833333334 1.7234427083333335 -1.0430020833333333c0.33249375 0.58951875 0.63494375 1.0882833333333333 1.3604260416666667 1.0882833333333333 0.6954385416666666 0 1.133876041666667 -0.27202291666666667 1.133876041666667 -1.3301427083333333V10.578802083333334h2.1163833333333337v7.2258812500000005c0 2.1920197916666666 -1.2848854166666668 3.1897645833333335 -3.1595291666666667 3.1897645833333335 -1.693015625 0 -2.6757864583333335 -0.8768510416666667 -3.174646875 -1.9350187499999998" stroke-width="1"></path><path fill="#000" d="m13.644773958333333 18.832855208333335 1.7232510416666669 -0.9977447916666667c0.45362708333333335 0.740815625 1.0432177083333334 1.2850052083333334 2.0862437500000004 1.2850052083333334 0.8769229166666668 0 1.4361104166666667 -0.43843750000000004 1.4361104166666667 -1.0431458333333334 0 -0.7256260416666668 -0.5744250000000001 -0.9826510416666666 -1.5419583333333333 -1.405803125l-0.5289520833333334 -0.22690937500000002c-1.5269364583333336 -0.6499416666666668 -2.5398468750000003 -1.46625 -2.5398468750000003 -3.18966875 0 -1.5873354166666667 1.2093687499999999 -2.796776041666667 3.09910625 -2.796776041666667 1.3454760416666667 0 2.3129614583333336 0.468696875 3.008304166666667 1.6932072916666667l-1.6478302083333334 1.0581677083333332c-0.362825 -0.6499895833333333 -0.755765625 -0.9069427083333333 -1.3604260416666667 -0.9069427083333333 -0.6198260416666667 0 -1.0129104166666667 0.39303645833333334 -1.0129104166666667 0.9069427083333333 0 0.63494375 0.39308437500000004 0.8919927083333334 1.3000270833333334 1.2850770833333334l0.529071875 0.22674166666666667c1.7989833333333334 0.7710510416666667 2.8118697916666666 1.5570520833333332 2.8118697916666666 3.325728125 0 1.9049031250000001 -1.49658125 2.9479052083333332 -3.5071645833333336 2.9479052083333332 -1.9652541666666667 0 -3.235165625 -0.9372260416666668 -3.8548958333333334 -2.161784375Z" stroke-width="1"></path></svg>