<svg xmlns="http://www.w3.org/2000/svg" viewBox="-1.3 -1.3 16 16" fill="none" stroke="#647f59" stroke-linecap="round" stroke-linejoin="round" id="Brand-Zulip--Streamline-Tabler.svg" height="16" width="16" style="background-color: #dbd9e6"><desc>Brand Zulip Streamline Icon: https://streamlinehq.com</desc><path d="M3.11175 0.7965H10.38825C11.264737499999999 0.7965 12.042000000000002 1.458 12.042000000000002 2.45025C12.042000000000002 3.77325 10.914131249999999 4.60940625 10.719000000000001 4.765499999999999L7.742249999999999 7.4115L9.065249999999999 4.104H3.11175C1.8387 4.10405625 1.04304375 2.7259874999999996 1.6795125 1.6234312499999999C1.9749375 1.1117249999999999 2.5209 0.7965 3.11175 0.7965Z" stroke-width="1"></path><path d="M10.38825 12.7035H3.11175C2.2352625 12.7035 1.458 12.042000000000002 1.458 11.04975C1.458 9.726750000000001 2.58586875 8.89059375 2.781 8.7345L5.757750000000001 6.0885L4.43475 9.396H10.38825C11.6613 9.396 12.456956250000001 10.774125 11.820431249999999 11.876625C11.52500625 12.38833125 10.979099999999999 12.7035 10.38825 12.7035Z" stroke-width="1"></path></svg>