<svg xmlns="http://www.w3.org/2000/svg" fill="none" viewBox="-0.5 -0.5 24 24" id="React--Streamline-Svg-Logos.svg" height="24" width="24"><desc>React Streamline Icon: https://streamlinehq.com</desc><path fill="#00D8FF" d="M18.756236458333333 7.975896875000001c-0.23364166666666666 -0.08040416666666667 -0.4757166666666667 -0.15649583333333333 -0.7249791666666666 -0.22844270833333336 0.040968750000000005 -0.16720520833333333 0.07855937500000001 -0.3322541666666667 0.11200520833333334 -0.49447604166666664 0.5487895833333334 -2.663879166666667 0.18996562500000003 -4.8099468750000005 -1.0352875000000001 -5.516506875 -1.1748687500000001 -0.6775057291666667 -3.0962552083333335 0.028903333333333333 -5.036784375 1.7176735416666666 -0.18658750000000002 0.16238958333333334 -0.3737260416666667 0.33433854166666666 -0.5607687499999999 0.5145291666666667 -0.12463125 -0.11921666666666667 -0.24904687500000003 -0.23443229166666668 -0.37317500000000003 -0.344640625 -2.033703125 -1.8057443750000002 -4.072197916666667 -2.5667113541666664 -5.296253125000001 -1.858098125 -1.1737427083333334 0.6794679166666667 -1.5213302083333333 2.69695125 -1.0273572916666667 5.221536666666666 0.047701041666666666 0.2438479166666667 0.10347604166666667 0.4928708333333333 0.166534375 0.7460625 -0.28850625 0.08188958333333334 -0.567021875 0.16921770833333336 -0.833534375 0.26208020833333334C1.7623198958333333 8.826896875000001 0.23958333333333334 10.129727083333334 0.23958333333333334 11.481096875c0 1.3956927083333333 1.6346579166666666 2.7956020833333333 4.118126041666667 3.6444458333333336 0.19597916666666665 0.0669875 0.3993375 0.130309375 0.6089010416666667 0.1904447916666667 -0.06801770833333333 0.27384375 -0.12719479166666667 0.5421770833333334 -0.17686041666666666 0.8038979166666667 -0.47102083333333333 2.480765625 -0.10318854166666667 4.450595833333334 1.0674395833333334 5.125789583333334 1.2091291666666668 0.697259375 3.2384 -0.019454166666666665 5.214411458333334 -1.7467062500000001 0.1561604166666667 -0.13653854166666665 0.31291979166666667 -0.2813427083333333 0.46991875000000005 -0.4330947916666667 0.20352604166666668 0.19597916666666665 0.406740625 0.3814645833333334 0.6088531250000001 0.5554260416666666 1.9139833333333336 1.6470635416666666 3.80434375 2.312122916666667 4.97389375 1.6350604166666667 1.2079312500000001 -0.699271875 1.6004885416666668 -2.8153197916666666 1.0908229166666668 -5.389858333333334 -0.03890833333333333 -0.19662604166666667 -0.08421354166666667 -0.39749270833333333 -0.13507708333333332 -0.6019531250000001 0.14250416666666668 -0.04211875 0.28239687500000005 -0.08562708333333334 0.418815625 -0.13083645833333335C21.080626041666665 14.278304166666668 22.760416666666668 12.895429166666666 22.760416666666668 11.481096875c0 -1.3562572916666666 -1.571834375 -2.6678562500000003 -4.0041802083333335 -3.5052000000000003Zm-0.559978125 6.244595833333333c-0.12314583333333334 0.04077708333333333 -0.24950208333333337 0.08018854166666667 -0.37825416666666667 0.118378125 -0.28503229166666666 -0.9023187500000001 -0.6697072916666668 -1.861778125 -1.140440625 -2.8531020833333334 0.44921875 -0.9676770833333334 0.819015625 -1.91489375 1.0960697916666668 -2.811366666666667 0.230359375 0.06667604166666667 0.45396250000000005 0.13699375 0.66944375 0.21119270833333334 2.0840156249999997 0.7174322916666667 3.35526875 1.7781635416666668 3.35526875 2.5955020833333333 0 0.8705979166666666 -1.3729083333333334 2.000760416666667 -3.6020875 2.7393958333333335Zm-0.924959375 1.8328604166666667c0.22535208333333334 1.138428125 0.25755208333333335 2.167678125 0.10826770833333334 2.9723187500000003 -0.13411875 0.722990625 -0.403865625 1.2050322916666667 -0.7373895833333334 1.3980885416666666 -0.7097416666666667 0.41081354166666667 -2.2275020833333334 -0.12316979166666667 -3.8643593750000003 -1.5317520833333333 -0.187665625 -0.16145520833333335 -0.3766729166666667 -0.3338833333333333 -0.5662791666666667 -0.51635 0.634584375 -0.694025 1.2687854166666668 -1.5008458333333334 1.8877729166666668 -2.3969114583333333 1.0887145833333334 -0.09662395833333333 2.1172937500000004 -0.2545572916666667 3.0500875 -0.47018229166666664 0.04592812500000001 0.18531770833333333 0.08672916666666666 0.367065625 0.12190000000000001 0.5447885416666667ZM7.917438541666668 20.352771875000002c-0.6934260416666667 0.24490208333333335 -1.2456895833333332 0.25189791666666667 -1.579525 0.059416666666666666 -0.7103885416666668 -0.4097354166666667 -1.0056989583333333 -1.9913208333333334 -0.6028635416666668 -4.112879166666667 0.04611979166666667 -0.24296145833333335 0.10105625 -0.4925354166666667 0.1643541666666667 -0.74764375 0.9225395833333334 0.20400520833333335 1.9435958333333332 0.35079791666666665 3.034921875 0.4392760416666667 0.62315625 0.876803125 1.2756854166666667 1.6827614583333335 1.9332697916666668 2.3884302083333333 -0.14367812500000002 0.13871875 -0.28678125000000004 0.27075312500000004 -0.42909375 0.39519270833333336 -0.8737604166666667 0.7637677083333334 -1.7493895833333335 1.3056572916666667 -2.521063541666667 1.5782072916666667ZM4.66885625 14.215173958333335c-1.0981302083333333 -0.37533125 -2.0050250000000003 -0.8631468750000001 -2.6266503125 -1.3954770833333334 -0.558569375 -0.47835208333333334 -0.8405805208333333 -0.9532541666666667 -0.8405805208333333 -1.3386 0 -0.8200697916666666 1.2225985416666667 -1.8660427083333335 3.261692291666667 -2.576982291666667 0.24741770833333332 -0.08627395833333333 0.50643125 -0.16756458333333335 0.7751958333333333 -0.24394375000000001 0.281821875 0.9167177083333333 0.6514989583333334 1.875146875 1.0976270833333335 2.8443333333333336 -0.45190208333333337 0.9835614583333333 -0.8268260416666666 1.9572760416666666 -1.111403125 2.8847270833333334 -0.19161875 -0.05508020833333333 -0.3772479166666667 -0.113059375 -0.55588125 -0.17405729166666667Zm1.088954166666667 -7.412444791666667c-0.42324791666666667 -2.16300625 -0.1421447916666667 -3.7947125 0.5651770833333334 -4.204160416666666 0.7534416666666667 -0.4361734375 2.4194802083333333 0.185725 4.175434375 1.7449093750000002 0.11224479166666668 0.09964270833333333 0.22494479166666667 0.20395729166666665 0.3379322916666667 0.31186562500000004 -0.6543260416666667 0.7026020833333333 -1.3008895833333334 1.5024989583333335 -1.9185114583333334 2.3741510416666665 -1.0591739583333333 0.09815729166666667 -2.0730427083333334 0.255875 -3.0052135416666665 0.46704375000000004 -0.05860208333333334 -0.23575000000000002 -0.11051979166666667 -0.4673791666666667 -0.15481875 -0.6938093750000001Zm9.714457291666667 2.3987322916666667c-0.22283645833333335 -0.38489062500000004 -0.4516145833333334 -0.760725 -0.684825 -1.1262572916666667 0.7185583333333334 0.09082604166666666 1.4070010416666667 0.21140833333333334 2.0535166666666664 0.35896770833333336 -0.19408645833333335 0.6220541666666667 -0.43601770833333336 1.2724750000000002 -0.7207864583333334 1.939235416666667 -0.20429270833333335 -0.3878375 -0.42037291666666665 -0.7788854166666667 -0.6479052083333333 -1.1719458333333335ZM11.510733333333334 5.3429239583333334c0.44378020833333337 0.4807479166666667 0.8881833333333333 1.0175104166666666 1.3252791666666668 1.5998895833333335 -0.44047395833333336 -0.020795833333333336 -0.8864104166666668 -0.031625 -1.3360125 -0.031625 -0.44536145833333335 0 -0.8879916666666667 0.010589583333333335 -1.3257583333333334 0.03102604166666667 0.4375510416666667 -0.5769645833333333 0.8858114583333333 -1.1130083333333334 1.3364916666666669 -1.599290625Zm-3.9869062499999997 3.865197916666667c-0.22259687500000003 0.3859927083333333 -0.4346520833333334 0.7749322916666668 -0.6357343750000001 1.1645666666666667 -0.28016875 -0.6644364583333333 -0.5198479166666666 -1.3178041666666667 -0.7156354166666667 -1.9486989583333332 0.6425625 -0.14379791666666666 1.3277708333333333 -0.26136145833333335 2.041753125 -0.35048645833333336 -0.23651666666666668 0.36893437500000004 -0.4671635416666667 0.7475958333333333 -0.6903833333333333 1.13461875Zm0.7109395833333334 5.749161458333334c-0.7376770833333334 -0.082296875 -1.4331875 -0.19379895833333333 -2.0755583333333334 -0.33364375 0.19890208333333334 -0.64213125 0.44387604166666667 -1.3094666666666668 0.7299625000000001 -1.9882062500000002 0.201609375 0.38934687500000004 0.41450312500000003 0.7784302083333333 0.638465625 1.1652854166666669 0.22813125 0.394090625 0.464528125 0.7801072916666667 0.7071302083333333 1.1565645833333333Zm3.3025843750000003 2.7297885416666667c-0.455975 -0.49198437500000003 -0.9108 -1.0361979166666668 -1.3550114583333335 -1.621571875 0.43122604166666667 0.016914583333333334 0.8708614583333334 0.02556354166666667 1.3176604166666666 0.02556354166666667 0.4590416666666667 0 0.9128125 -0.010350000000000002 1.3594677083333333 -0.030211458333333333 -0.4385572916666667 0.595915625 -0.8813552083333334 1.1409677083333334 -1.3221166666666666 1.6262197916666667Zm4.591997916666666 -5.086234375000001c0.3010125 0.6860708333333333 0.5547552083333334 1.3499083333333335 0.7562208333333333 1.9811145833333335 -0.6529604166666667 0.14897291666666668 -1.3579822916666666 0.26895625 -2.1007864583333333 0.3581052083333333 0.23378541666666666 -0.37049166666666666 0.4645760416666667 -0.752746875 0.6913416666666667 -1.145975 0.22942500000000002 -0.3978041666666667 0.4472541666666667 -0.7962312500000001 0.6532239583333334 -1.1932447916666666Zm-1.486590625 0.7126166666666667c-0.35204375000000004 0.6104104166666667 -0.7134552083333333 1.1931010416666668 -1.0803770833333335 1.7431364583333333 -0.66829375 0.047772916666666665 -1.3587010416666667 0.07240208333333334 -2.06238125 0.07240208333333334 -0.7008291666666666 0 -1.3825635416666666 -0.021778125 -2.039021875 -0.06437604166666666 -0.3817041666666667 -0.557246875 -0.7509739583333334 -1.1416864583333333 -1.100765625 -1.745915625 -0.34888125 -0.6025760416666667 -0.6698989583333333 -1.2102552083333333 -0.9608489583333335 -1.8145322916666666 0.290878125 -0.6056666666666667 0.6111291666666667 -1.2140166666666667 0.9579979166666668 -1.8155145833333333l-0.00009583333333333334 0.00011979166666666667c0.347803125 -0.6031031250000001 0.7138385416666666 -1.1846916666666667 1.0920208333333334 -1.738440625 0.6697552083333334 -0.05064791666666667 1.35656875 -0.07705000000000001 2.050665625 -0.07705000000000001 0.6972354166666668 0 1.3849593750000002 0.026617708333333337 2.054546875 0.07767291666666666 0.37238437500000005 0.5497239583333334 0.7359520833333334 1.1294197916666668 1.085096875 1.7325947916666666 0.35312187500000003 0.6099552083333334 0.6775177083333334 1.2142802083333333 0.9708635416666667 1.8069614583333333 -0.2924833333333334 0.6028635416666668 -0.6161364583333333 1.2132500000000002 -0.9677010416666668 1.8229416666666667Zm1.9846604166666666 -10.743491666666667c0.7541604166666668 0.4348916666666667 1.0474343750000001 2.188857291666667 0.5736104166666667 4.488833333333334 -0.03023541666666667 0.14674479166666668 -0.06425625 0.2962447916666667 -0.10122395833333334 0.44773333333333337 -0.9343510416666667 -0.2156010416666667 -1.948938541666667 -0.37602604166666664 -3.011203125 -0.47566875000000003 -0.6188197916666667 -0.8812354166666667 -1.2600885416666667 -1.682378125 -1.9037531250000002 -2.3759479166666666 0.17305104166666668 -0.16648645833333334 0.3458625 -0.325234375 0.5179552083333334 -0.475021875 1.6626364583333335 -1.4469395833333334 3.2165979166666667 -2.018218854166667 3.9246145833333337 -1.609928125ZM11.5 9.470058333333334c1.1106364583333335 0 2.0110385416666667 0.9003541666666667 2.0110385416666667 2.0110385416666667 0 1.1106364583333335 -0.9004020833333334 2.0110145833333335 -2.0110385416666667 2.0110145833333335s-2.0110385416666667 -0.9003781250000001 -2.0110385416666667 -2.0110145833333335c0 -1.1106843750000002 0.9004020833333334 -2.0110385416666667 2.0110385416666667 -2.0110385416666667Z" stroke-width="1"></path></svg>