<svg xmlns="http://www.w3.org/2000/svg" fill="none" viewBox="0 0 96 96" id="Tailwindcss-Icon--Streamline-Svg-Logos.svg" height="24" width="24" stroke-width="1"><desc>Tailwindcss Icon Streamline Icon: https://streamlinehq.com</desc><path fill="url(#a)" d="M48 19.7998c-12.5333 0-20.3667 6.2667-23.5 18.8 4.7-6.2667 10.1833-8.6167 16.45-7.05 3.5755.8939 6.1311 3.4878 8.9598 6.3591 4.6081 4.6774 9.9413 10.0909 21.5902 10.0909 12.5333 0 20.3667-6.2667 23.5-18.8-4.7 6.2667-10.1833 8.6167-16.45 7.05-3.5755-.8939-6.1311-3.4877-8.9598-6.3591C64.9821 25.2133 59.6489 19.7998 48 19.7998Zm-23.5 28.2c-12.5333 0-20.36667 6.2667-23.5 18.8 4.7-6.2667 10.1833-8.6167 16.45-7.05 3.5755.8939 6.1311 3.4878 8.9598 6.3591C31.0179 70.7863 36.3511 76.1998 48 76.1998c12.5333 0 20.3667-6.2667 23.5-18.8-4.7 6.2667-10.1833 8.6167-16.45 7.05-3.5755-.8939-6.1311-3.4877-8.9598-6.3591-4.6081-4.6774-9.9413-10.0909-21.5902-10.0909Z"></path><defs><linearGradient id="a" x1="-260.111" x2="7858.33" y1="1824.6" y2="6505.5" gradientUnits="userSpaceOnUse"><stop stop-color="#2298BD"></stop><stop offset="1" stop-color="#0ED7B5"></stop></linearGradient></defs></svg>